<svg xmlns="http://www.w3.org/2000/svg" viewBox="0 0 672.837 145.614">
  <title>oishii_front_page-01</title>
  <g>
    <path d="M24.776,144.109a31.152,31.152,0,0,1-13.139-7.379,20.079,20.079,0,0,1-3.6-8.28c-.72-3.059-1.26-6.659-1.8-9.72a36.382,36.382,0,0,1,5.94-12.6c2.52-3.6,5.4-7.2,8.459-10.8,3.06-1.8,5.4-4.32,8.46-6.12s5.94-3.6,9-5.4a22.054,22.054,0,0,0,8.459-5.94V60.953l-1.8-4.86a24.316,24.316,0,0,0-11.519-1.08l-13.86,2.88c-3.6.72-6.48-.54-9-2.88a36.2,36.2,0,0,0-7.74-6.119l-1.26-5.4a6.513,6.513,0,0,1,5.4-3.06s4.5.54,7.92,1.08c3.419-1.44,6.479-.36,10.079-1.08,3.06-.54,6.66-.54,10.26-1.08,3.06-.72,6.119-1.26,9-3.06l.72-2.34a120.956,120.956,0,0,1-.72-13.859,22.482,22.482,0,0,0-2.88-8.46l7.74-1.08A20.677,20.677,0,0,1,59.7,14.7l2.52,7.2L61.5,33.234l3.6,3.6a68.829,68.829,0,0,0,12.059.72,88.8,88.8,0,0,1,12.059.54,22.152,22.152,0,0,1,10.26,4.14l3.6,7.379-3.6,4.14-10.079,2.52-10.98-.18-7.2-1.08-3.6,4.14-1.26,13.32c7.74.179,14.94,1.98,22.14,2.519a133.722,133.722,0,0,1,21.059,5.4c7.019,3.96,11.7,8.28,18.9,15.48a16.546,16.546,0,0,1,4.68,8.459,27.648,27.648,0,0,0,3.6,9.54c1.261,3.06,1.8,6.66,2.52,10.259a47.623,47.623,0,0,1-7.2,11.52c-3.06,3.6-9.9,7.02-15.84,8.82l-4.139.179c-4.86-.54-9-2.339-12.06-6.659-1.8-3.06,6.48-10.44,7.38-16.38,1.62-10.979-5.58-16.739-5.58-16.739a21.574,21.574,0,0,0-5.94-6.66c-3.06-1.8-5.4-2.879-7.739-4.139-3.06-.54-5.58-1.26-8.46-1.8a58.8,58.8,0,0,0-9.72-.539l-2.88,1.8-1.26,8.28c0,6.659-.719,10.259-.719,13.859a73.743,73.743,0,0,1-1.08,11.519,56,56,0,0,0-1.26,11.34c-.54,1.98-1.8,3.06-3.6,4.32-3.06,1.8-6.66,2.339-9.54,3.06-3.06.54-6.659.54-10.26,1.079C33.956,146.45,29.1,145.91,24.776,144.109ZM47.1,118.73a40.929,40.929,0,0,1-.54-7.739l-1.8-11.519-3.06-.54c-2.34.54-4.859,1.079-6.659,2.88-1.8,1.979-4.14,4.319-5.94,6.119a16.428,16.428,0,0,0-4.32,6.66,21.456,21.456,0,0,0-.54,8.459,21.2,21.2,0,0,0,7.2,7.2l3.6.54,9.719-4.86C46.555,124.13,47.1,121.791,47.1,118.73Zm80.637-37.978a81.189,81.189,0,0,0-2.34-12.6c-1.8-3.6-3.06-7.2-4.86-11.34-1.8-3.6-3.6-7.2-5.4-10.98l1.8-.54c3.059.54,6.119,1.261,9.719.54a14.2,14.2,0,0,1,8.28,3.061c1.8,3.059,4.319,6.659,6.119,10.259a36.311,36.311,0,0,1,3.6,10.8c.54,4.319,1.26,8.459.54,12.6l-3.6,3.78h-6.659Z" transform="translate(-1.377 -2.815)"/>
    <path d="M200.456,137.63c-2.34-1.8-4.68-3.06-6.48-4.86a55.389,55.389,0,0,1-12.78-27c-1.8-10.259-3.6-19.979-4.679-30.239-1.26-10.079-2.52-20.339-3.06-30.6a12.613,12.613,0,0,1,3.06-10.8h1.8a45.718,45.718,0,0,0,9.54,2.88,18.321,18.321,0,0,1,8.46,4.86l1.26,4.859a55.239,55.239,0,0,0-1.26,10.8,44.463,44.463,0,0,1-1.26,10.8,39.977,39.977,0,0,0-.54,11.519,106.889,106.889,0,0,1,3.06,12.6,76.063,76.063,0,0,0,2.34,13.319,51.625,51.625,0,0,0,5.4,12.06l2.7,2.16c4.14-4.86,8.82-13.14,14.58-17.639,4.5-3.06,8.82-6.121,13.679-7.2,3.06,1.8,4.32,8.28,3.78,11.88-1.8,3.78-5.22,8.82-9.9,16.919s-5.759,10.62-9.719,12.78c-6.12,3.24-9,5.04-13.32,4.5A14.23,14.23,0,0,1,200.456,137.63Zm85.856-19.44a20.914,20.914,0,0,1-1.8-12.059c-5.039-16.739-9.9-32.039-13.5-41.038-3.6-9.18-10.62-17.82-12.42-26.819l3.6-4.14h1.8a33.124,33.124,0,0,0,10.259,3.6,56.914,56.914,0,0,1,10.26,2.88,49.082,49.082,0,0,1,7.2,11.519,45.986,45.986,0,0,1,3.06,12.6,34.86,34.86,0,0,0,4.14,13.319c0,3.06.72,11.88.72,11.88l1.079,9c-.54,3.059-.54,6.659-1.079,10.259a27.616,27.616,0,0,1-3.6,9.539c-1.8,1.8-3.6,2.52-6.12,1.8Z" transform="translate(-1.377 -2.815)"/>
    <path d="M380.1,145.189a30.307,30.307,0,0,1-10.08-5.4,45.863,45.863,0,0,1-9.18-7.2,96.694,96.694,0,0,1-10.8-15.119c-3.06-5.4-4.86-10.8-6.66-16.2s-1.8-12.059-1.08-18.719c1.08-6.48,2.34-13.859,3.6-20.339,1.08-6.66,2.34-13.859,3.06-20.519.54-6.66,1.08-13.86,1.08-21.059l-1.8-6.12,4.32-1.8c7.019,1.44,11.88,6.12,14.4,8.46,1.26,3.059,2.34,6.659,4.14,9.719a48.981,48.981,0,0,1,3.059,9.54c.54,3.06,1.261,6.66.54,10.8a78.14,78.14,0,0,0-1.08,10.98,59.322,59.322,0,0,1-1.26,10.8,30.029,30.029,0,0,1-4.139,10.259c-.72,3.6-1.8,7.2-2.52,10.8-.54,4.139-1.259,7.74-1.259,12.059.719,4.14,1.979,8.46,4.319,11.34a42.723,42.723,0,0,0,7.739,10.259,20.823,20.823,0,0,0,8.46,3.6c3.06.72,6.12,1.26,9,.72a33.129,33.129,0,0,0,10.26-3.6,77.487,77.487,0,0,0,9-6.659c3.06-2.52,5.4-4.86,8.46-7.2l14.4-16.92h1.98a23.738,23.738,0,0,1,1.8,12.6c-.72,7.2,0,9.72-.72,12.6a88.046,88.046,0,0,1-5.94,9.179,61.256,61.256,0,0,1-8.46,8.28,29.049,29.049,0,0,1-9.719,6.12,33.321,33.321,0,0,1-11.339,1.8h-12.6A67.2,67.2,0,0,1,380.1,145.189Z" transform="translate(-1.377 -2.815)"/>
    <path d="M499.256,137.63c-2.34-1.8-4.681-3.06-6.481-4.86a55.4,55.4,0,0,1-12.779-27c-1.8-10.259-3.6-19.979-4.68-30.239-1.259-10.079-2.519-20.339-3.059-30.6a12.612,12.612,0,0,1,3.059-10.8h1.8a45.718,45.718,0,0,0,9.54,2.88,18.318,18.318,0,0,1,8.459,4.86l1.261,4.859a55.164,55.164,0,0,0-1.261,10.8,44.463,44.463,0,0,1-1.26,10.8,39.977,39.977,0,0,0-.54,11.519,107.093,107.093,0,0,1,3.061,12.6,75.971,75.971,0,0,0,2.34,13.319,51.584,51.584,0,0,0,5.4,12.06l2.7,2.16c4.14-4.86,8.82-13.14,14.58-17.639,4.5-3.06,8.819-6.121,13.679-7.2,3.06,1.8,4.32,8.28,3.78,11.88-1.8,3.78-5.22,8.82-9.9,16.919s-5.76,10.62-9.72,12.78c-6.119,3.24-9,5.04-13.319,4.5A14.234,14.234,0,0,1,499.256,137.63Zm85.856-19.44a20.914,20.914,0,0,1-1.8-12.059c-5.04-16.739-9.9-32.039-13.5-41.038-3.6-9.18-10.619-17.82-12.419-26.819l3.6-4.14h1.8a33.111,33.111,0,0,0,10.26,3.6,56.949,56.949,0,0,1,10.259,2.88,49.082,49.082,0,0,1,7.2,11.519,45.984,45.984,0,0,1,3.059,12.6,34.86,34.86,0,0,0,4.14,13.319c0,3.06.721,11.88.721,11.88l1.08,9c-.54,3.059-.54,6.659-1.08,10.259a27.636,27.636,0,0,1-3.6,9.539c-1.8,1.8-3.6,2.52-6.12,1.8Z" transform="translate(-1.377 -2.815)"/>
    <path d="M644.155,98.751l1.8-30.778-.54-12.42c.54-5.4,1.26-18.359,1.8-23.759.54-4.859,1.26-9.719.54-15.119a19.168,19.168,0,0,1-3.6-7.74l6.119-6.12h1.8l1.8.72,10.8-.72a15.578,15.578,0,0,1,8.46,5.58l1.08,3.6a142.783,142.783,0,0,0-5.941,14.4,50.472,50.472,0,0,0-2.339,16.2s-.72,4.5-1.26,9.9l.54,8.82c-.54,5.4-1.8,11.52-2.34,16.919a145.729,145.729,0,0,1-3.06,16.919c-1.8,5.4-4.139,10.8-7.74,14.94l-4.319.54C644.875,107.751,643.615,103.431,644.155,98.751Zm2.7,35.639c-.54-3.78-1.08-7.38-1.439-11.519l.72-.9,4.139,1.259c3.6,1.621,6.48,3.061,10.08,4.68a16.239,16.239,0,0,1,7.74,7.38l-.72,6.66a29.967,29.967,0,0,1-10.439,6.48l-7.38-1.98C647.755,142.85,647.4,138.71,646.854,134.39Z" transform="translate(-1.377 -2.815)"/>
  </g>
</svg>
