<svg xmlns="http://www.w3.org/2000/svg" viewBox="0 0 786.803 159.653">
  <title>home_page_oishii_bottom</title>
  <g>
    <path d="M63.175,149.91l-1.26-13.14c2.339-9,4.859-14.4,9-22.319a83.077,83.077,0,0,0,10.26-19.439c3.06-7.74,5.4-16.559,7.2-20.7a23.727,23.727,0,0,0-12.6-1.619L36,73.953a56.433,56.433,0,0,1-11.52-1.26,72.364,72.364,0,0,0-10.8-.54,15.678,15.678,0,0,1-10.8-2.52l-.54-11.16,2.88-1.98c9.72-.54,17.459-1.079,25.379-1.619,7.739-.541,15.659-1.081,29.519-2.34,7.919-.54,15.659-1.261,24.119-.54a108.4,108.4,0,0,0,13.319.54,107.14,107.14,0,0,0,13.139.539c4.321.72,8.46,1.8,12.06,4.14a14.657,14.657,0,0,1,3.06,8.28c-3.06,3.6-5.76,6.48-7.56,10.619s-3.239,9-5.219,13.14c-1.8,4.32-2.88,9-4.68,12.959a72.285,72.285,0,0,1-7.2,12.24s-3.06,4.68-6.84,9.719c-3.6,5.221-6.48,11.16-9.54,16.2a62.967,62.967,0,0,1-11.519,15.479l-4.68.54C65.515,154.589,63.714,152.609,63.175,149.91ZM27.716,33.454,23.4,27.875v-3.6c6.84-4.139,13.5-7.559,21.059-8.459,7.2-.72,14.58-1.62,23.039-1.44,7.38.18,14.58.36,22.86.54,5.939.18,10.259,1.98,13.859,6.66l1.26,3.42c-5.94,4.679-14.039,7.019-21.6,7.919-7.38.54-14.4,1.44-22.14,2.34a173.887,173.887,0,0,1-23.758-.54Z" transform="translate(-2.337 -3.396)"/>
    <path d="M182.516,93.392a29.064,29.064,0,0,1-10.259-3.6,81.573,81.573,0,0,1-9.72-4.86l-1.8-2.88a46.661,46.661,0,0,1,6.12-5.4,25.023,25.023,0,0,1,6.66-4.319,32.078,32.078,0,0,1,7.739-1.08h7.92c7.74,0,16.2.54,23.939.54,7.92,1.8,16.739,2.16,24.659,2.88,9,.72,16.919,0,26.1,1.26l10.08.54a59.881,59.881,0,0,1,9.719,1.259,38.569,38.569,0,0,1,8.28,3.06l.72,3.06c-5.4,4.14-10.8,7.2-17.46,8.28a103.521,103.521,0,0,1-19.259,3.6c-6.66.72-11.879-.36-19.079-.9C226.794,94.472,195.656,92.852,182.516,93.392Z" transform="translate(-2.337 -3.396)"/>
    <path d="M345.776,148.47l-.54-17.64a81,81,0,0,1,7.2-16.739,93.566,93.566,0,0,1,9-15.84c2.879-5.219,5.219-10.439,7.559-15.659a49.856,49.856,0,0,0-9.54-7.739c-3.42-2.16-6.659-4.32-10.079-6.48-3.96-2.34-7.38-3.96-10.8-6.12l-4.859-16.739,3.239-1.44a45.064,45.064,0,0,0,14.94,5.58,38.062,38.062,0,0,1,14.939,7.019,41.8,41.8,0,0,0,14.579,7.56c2.521-5.76,6.66-11.16,10.8-16.2,3.6-5.04,7.019-10.8,10.8-16.38a73.564,73.564,0,0,0,8.1-18l2.16-6.84,3.24-.54,17.639,11.7a9.626,9.626,0,0,1,.54,7.2,79.663,79.663,0,0,0-13.319,16.2c-3.6,6.3-6.84,12.06-10.26,17.639-3.779,6.3-6.84,12.06-10.439,17.82,8.819,5.579,13.68,8.639,13.68,8.639,5.939,2.16,9.359,5.76,13.138,8.64a22.547,22.547,0,0,1,8.641,10.619l-.181,1.8-5.4,6.66-6.84.36-30.6-15.119-6.12,5.579c-2.34,2.7-3.779,6.3-5.22,9-2.339,3.42-4.5,6.3-6.659,9a96.446,96.446,0,0,0-4.14,10.439,51.939,51.939,0,0,1-5.4,10.98,115.214,115.214,0,0,1-7.019,9.36,9.368,9.368,0,0,1-6.66.54Z" transform="translate(-2.337 -3.396)"/>
    <path d="M495.717,144.87a43.684,43.684,0,0,1-13.14-2.16l-3.059-3.06,6.66-7.2c13.678-7.919,26.278-14.579,40.137-21.059,12.781-7.74,26.1-14.579,39.6-21.239,13.68-6.84,27.179-12.779,41.4-18.359,3.42-.18,8.46,1.8,8.46,5.22l-.18,3.959a16.794,16.794,0,0,1-8.1,9.54c-10.26,5.759-20.7,12.42-31.138,18.539-11.16,6.12-21.6,12.6-32.4,18.539s-19.8,11.16-31.5,14.76A50.468,50.468,0,0,1,495.717,144.87ZM490.5,44.614c-3.779-1.62-4.14-7.56-7.38-9l.181-4.5c5.039-3.239,9.72-5.039,14.939-2.88a80.661,80.661,0,0,0,14.939,5.22,60.671,60.671,0,0,0,14.939,3.42c4.681,1.08,8.46,4.68,10.981,9.9l-.361,2.34-6.3,4.5c-3.6,1.98-6.48,2.16-10.44,1.261-3.6-.721-7.019-1.621-10.08-2.161a46.7,46.7,0,0,1-11.339-1.8C497.337,49.474,492.837,47.674,490.5,44.614Z" transform="translate(-2.337 -3.396)"/>
    <path d="M651.237,134.43a41.611,41.611,0,0,1-1.259-8.459v-8.1c3.78-10.44,7.919-21.059,12.419-32.219,3.959-11.159,7.74-21.6,11.7-32.939a95.849,95.849,0,0,0,6.659-36l1.08-3.78c9.18-2.52,18.539-4.14,28.079-5.94,10.08-1.079,19.8-2.34,29.339-2.88,9.9-.719,20.339-.719,30.778-.719a17.465,17.465,0,0,1,12.06,4.319,10.755,10.755,0,0,1,1.62,8.46c-2.52,2.34-7.02,7.2-10.619,10.8-2.521,2.7-6.12,9.539-10.98,16.559,0,3.06-5.4,4.14-7.38,5.4l-9,1.08-3.059-.54c-5.94.54-11.88.54-17.82,1.259-5.759.54-12.239,1.08-18.179,1.08a39.041,39.041,0,0,0-16.919,5.4c-3.42,8.64-6.48,17.28-9.9,26.1-3.24,9.54-5.939,18.18-9.179,27a171.967,171.967,0,0,1-12.239,26.279l-3.96,1.26Zm102.416,26.1c-8.46-.54-16.2-1.8-24.839-2.34a210.415,210.415,0,0,0-26.1,0l-14.4,3.06c-7.74-1.8-11.7-4.5-13.679-7.2v-2.7a54.21,54.21,0,0,1,14.4-5.58c5.4-1.26,27.179-4.14,32.578-5.22l-1.079-11.52-21.42,1.261-12.059-6.48-.36-1.8,1.98-3.06,30.959-5.76.9-2.88-7.56-7.56-14.4-1.08c-1.619-3.059-2.159-6.659-2.88-10.079a44.176,44.176,0,0,1-1.259-10.08,60.708,60.708,0,0,1,8.639-12.239l-8.1-3.96-.54-3.96c3.96-1.8,9.179-2.7,14.4-3.959,4.68-.54,9.9-1.8,14.939-2.52a124.978,124.978,0,0,1,15.48-1.081,70,70,0,0,0,10.439.54c3.06.541,10.62,1.44,10.26,6.12-.54,4.5-3.059,4.32-3.059,4.32l-27,2.88a70.426,70.426,0,0,0-6.121,8.82,97.282,97.282,0,0,1-7.92,9,40.294,40.294,0,0,0,16.92,1.62s2.7-5.94,2.7-8.1c2.88-3.6,6.3-3.6,9.54-5.4,3.24-1.08,6.3-.18,10.8,3.059l22.5,20.7s.36,8.46-2.879,8.46c-3.06-1.8-7.02-3.061-10.26-4.86a85.962,85.962,0,0,0-11.52-3.96c-4.859,1.8-10.079,3.96-14.939,5.759-1.98,2.34-2.7,4.68-1.8,7.38a19.672,19.672,0,0,0,12.959,3.06,15.253,15.253,0,0,1,11.52,2.7l1.26,5.04-1.62,3.42a17.615,17.615,0,0,1-9.72,1.259,14.707,14.707,0,0,0-10.62,2.34c-2.7,2.7-3.959,6.84-3.419,12.6,6.3.54,11.7,1.62,17.639,2.16a152.977,152.977,0,0,1,16.92,3.06,63.51,63.51,0,0,1,15.3,5.04,6.848,6.848,0,0,1,1.62,7.2l-2.7,5.04h-7.02C770.572,162.509,762.113,161.789,753.653,160.529Zm-.719-135.354-1.8-5.76-6.66-.54c-4.5.54-8.46.54-13.14,1.08-4.68.72-17.279,2.52-25.2,1.8-3.239,0-5.4,1.26-7.739,2.88-1.26,2.34-1.8,6.84-2.52,9.719a7.063,7.063,0,0,0,6.84,2.34c5.76-.72,23.759-3.06,29.7-3.06,5.76,0,10.98-.72,17.279-1.259A11.184,11.184,0,0,0,752.934,25.175Z" transform="translate(-2.337 -3.396)"/>
  </g>
</svg>
