<?xml version="1.0" encoding="utf-8"?>
<!-- Generator: Adobe Illustrator 24.0.0, SVG Export Plug-In . SVG Version: 6.00 Build 0)  -->
<svg version="1.1" id="Layer_1" xmlns="http://www.w3.org/2000/svg" xmlns:xlink="http://www.w3.org/1999/xlink" x="0px" y="0px"
	 viewBox="0 0 672.8 145.6" style="enable-background:new 0 0 672.8 145.6;" xml:space="preserve">
<style type="text/css">
	.st0{fill:#FFFFFF;}
</style>
<title>oishii_front_page-01</title>
<g>
	
		<image style="overflow:visible;opacity:0.1;" width="680" height="153" xlink:href="ECD7C5FE11FBA2E4.png"  transform="matrix(1 0 0 1 -2 -4.386)">
	</image>
	<g>
		<g>
			<path class="st0" d="M23.4,138.3c-4.9-1.3-9.4-3.9-13.1-7.4c-1.8-2.5-3-5.3-3.6-8.3c-0.7-3.1-1.3-6.7-1.8-9.7
				c1.1-4.5,3.2-8.8,5.9-12.6c2.5-3.6,5.4-7.2,8.5-10.8c3.1-1.8,5.4-4.3,8.5-6.1s5.9-3.6,9-5.4c3.3-1.3,6.1-3.3,8.5-5.9V55.1
				l-1.8-4.9c-3.7-1.3-7.6-1.7-11.5-1.1L18,52.1c-3.6,0.7-6.5-0.5-9-2.9c-2.3-2.4-4.9-4.4-7.7-6.1L0,37.7c1.2-1.9,3.2-3,5.4-3.1
				c0,0,4.5,0.5,7.9,1.1c3.4-1.4,6.5-0.4,10.1-1.1c3.1-0.5,6.7-0.5,10.3-1.1c3.1-0.7,6.1-1.3,9-3.1l0.7-2.3
				c-0.5-4.6-0.7-9.2-0.7-13.9c-0.4-3-1.4-5.9-2.9-8.5l7.7-1.1c3.9,0.3,7.7,1.8,10.8,4.1l2.5,7.2l-0.7,11.3l3.6,3.6
				c4,0.6,8,0.8,12.1,0.7c4-0.1,8.1,0.1,12.1,0.5c3.7,0.5,7.2,1.9,10.3,4.1l3.6,7.4l-3.6,4.1L88,50.5l-11-0.2l-7.2-1.1l-3.6,4.1
				L65,66.7c7.7,0.2,14.9,2,22.1,2.5c7.2,1.2,14.2,3,21.1,5.4c7,4,11.7,8.3,18.9,15.5c2.4,2.3,4,5.2,4.7,8.5
				c0.6,3.4,1.8,6.6,3.6,9.5c1.3,3.1,1.8,6.7,2.5,10.3c-1.8,4.2-4.3,8-7.2,11.5c-3.1,3.6-9.9,7-15.8,8.8l-4.1,0.2
				c-4.9-0.5-9-2.3-12.1-6.7c-1.8-3.1,6.5-10.4,7.4-16.4c1.6-11-5.6-16.7-5.6-16.7c-1.5-2.6-3.5-4.9-5.9-6.7
				c-3.1-1.8-5.4-2.9-7.7-4.1c-3.1-0.5-5.6-1.3-8.5-1.8c-3.2-0.4-6.5-0.6-9.7-0.5l-2.9,1.8L64.4,96c0,6.7-0.7,10.3-0.7,13.9
				c-0.1,3.9-0.4,7.7-1.1,11.5c-0.8,3.7-1.2,7.5-1.3,11.3c-0.5,2-1.8,3.1-3.6,4.3c-3.1,1.8-6.7,2.3-9.5,3.1
				c-3.1,0.5-6.7,0.5-10.3,1.1C32.6,140.6,27.7,140.1,23.4,138.3z M45.7,112.9c-0.4-2.6-0.6-5.1-0.5-7.7l-1.8-11.5l-3.1-0.5
				c-2.3,0.5-4.9,1.1-6.7,2.9c-1.8,2-4.1,4.3-5.9,6.1c-2,1.8-3.4,4.1-4.3,6.7c-0.7,2.8-0.9,5.6-0.5,8.5c1.8,2.9,4.3,5.4,7.2,7.2
				l3.6,0.5l9.7-4.9C45.2,118.3,45.7,116,45.7,112.9z M126.4,74.9c-0.4-4.3-1.2-8.5-2.3-12.6c-1.8-3.6-3.1-7.2-4.9-11.3
				c-1.8-3.6-3.6-7.2-5.4-11l1.8-0.5c3.1,0.5,6.1,1.3,9.7,0.5c3,0.1,5.9,1.2,8.3,3.1c1.8,3.1,4.3,6.7,6.1,10.3c1.8,3.4,3,7,3.6,10.8
				c0.5,4.3,1.3,8.5,0.5,12.6l-3.6,3.8h-6.7L126.4,74.9z"/>
			<path class="st0" d="M199.1,131.8c-2.3-1.8-4.7-3.1-6.5-4.9c-6.7-7.7-11.1-17-12.8-27c-1.8-10.3-3.6-20-4.7-30.2
				c-1.3-10.1-2.5-20.3-3.1-30.6c-0.7-3.9,0.4-7.9,3.1-10.8h1.8c3.1,1.3,6.3,2.3,9.5,2.9c3.2,0.8,6.1,2.5,8.5,4.9l1.3,4.9
				c-0.8,3.5-1.2,7.2-1.3,10.8c0,3.6-0.4,7.3-1.3,10.8c-0.7,3.8-0.9,7.7-0.5,11.5c1.3,4.1,2.3,8.3,3.1,12.6c0.4,4.5,1.2,9,2.3,13.3
				c1.3,4.2,3.1,8.3,5.4,12.1l2.7,2.2c4.1-4.9,8.8-13.1,14.6-17.6c4.5-3.1,8.8-6.1,13.7-7.2c3.1,1.8,4.3,8.3,3.8,11.9
				c-1.8,3.8-5.2,8.8-9.9,16.9s-5.8,10.6-9.7,12.8c-6.1,3.2-9,5-13.3,4.5C203.2,134.8,200.9,133.6,199.1,131.8z M284.9,112.4
				c-1.8-3.8-2.4-7.9-1.8-12.1c-5-16.7-9.9-32-13.5-41c-3.6-9.2-10.6-17.8-12.4-26.8l3.6-4.1h1.8c3.2,1.8,6.7,3,10.3,3.6
				c3.5,0.6,6.9,1.6,10.3,2.9c2.9,3.5,5.3,7.4,7.2,11.5c1.6,4,2.6,8.3,3.1,12.6c0.5,4.7,1.9,9.2,4.1,13.3c0,3.1,0.7,11.9,0.7,11.9
				l1.1,9c-0.5,3.1-0.5,6.7-1.1,10.3c-0.6,3.4-1.8,6.6-3.6,9.5c-1.8,1.8-3.6,2.5-6.1,1.8L284.9,112.4z"/>
			<path class="st0" d="M378.7,139.4c-3.7-1.1-7.1-3-10.1-5.4c-3.4-2-6.4-4.4-9.2-7.2c-4.1-4.7-7.7-9.7-10.8-15.1
				c-3.1-5.4-4.9-10.8-6.7-16.2s-1.8-12.1-1.1-18.7c1.1-6.5,2.3-13.9,3.6-20.3c1.1-6.7,2.3-13.9,3.1-20.5c0.5-6.7,1.1-13.9,1.1-21.1
				l-1.8-6.1l4.3-1.8c7,1.4,11.9,6.1,14.4,8.5c1.3,3.1,2.3,6.7,4.1,9.7c1.3,3.1,2.4,6.3,3.1,9.5c0.5,3.1,1.3,6.7,0.5,10.8
				c-0.6,3.6-1,7.3-1.1,11c-0.1,3.6-0.5,7.2-1.3,10.8c-0.7,3.6-2.1,7.1-4.1,10.3c-0.7,3.6-1.8,7.2-2.5,10.8
				c-0.5,4.1-1.3,7.7-1.3,12.1c0.7,4.1,2,8.5,4.3,11.3c2,3.8,4.7,7.2,7.7,10.3c2.5,1.8,5.4,3,8.5,3.6c3.1,0.7,6.1,1.3,9,0.7
				c3.6-0.6,7.1-1.8,10.3-3.6c3.2-2,6.2-4.2,9-6.7c3.1-2.5,5.4-4.9,8.5-7.2l14.4-16.9h2c1.7,4,2.4,8.3,1.8,12.6
				c-0.7,7.2,0,9.7-0.7,12.6c-1.8,3.2-3.8,6.2-5.9,9.2c-2.5,3-5.4,5.8-8.5,8.3c-2.8,2.7-6.1,4.7-9.7,6.1c-3.6,1.3-7.5,1.9-11.3,1.8
				h-12.6C386,141.7,382.3,140.7,378.7,139.4z"/>
			<path class="st0" d="M497.9,131.8c-2.3-1.8-4.7-3.1-6.5-4.9c-6.7-7.7-11.1-17-12.8-27c-1.8-10.3-3.6-20-4.7-30.2
				c-1.3-10.1-2.5-20.3-3.1-30.6c-0.7-3.9,0.4-7.9,3.1-10.8h1.8c3.1,1.3,6.3,2.3,9.5,2.9c3.2,0.8,6.1,2.5,8.5,4.9l1.3,4.9
				c-0.8,3.5-1.2,7.2-1.3,10.8c0,3.6-0.4,7.3-1.3,10.8c-0.7,3.8-0.9,7.7-0.5,11.5c1.3,4.1,2.3,8.3,3.1,12.6c0.4,4.5,1.2,9,2.3,13.3
				c1.3,4.2,3.1,8.3,5.4,12.1l2.7,2.2c4.1-4.9,8.8-13.1,14.6-17.6c4.5-3.1,8.8-6.1,13.7-7.2c3.1,1.8,4.3,8.3,3.8,11.9
				c-1.8,3.8-5.2,8.8-9.9,16.9s-5.8,10.6-9.7,12.8c-6.1,3.2-9,5-13.3,4.5C502,134.8,499.7,133.6,497.9,131.8z M583.7,112.4
				c-1.8-3.8-2.4-7.9-1.8-12.1c-5-16.7-9.9-32-13.5-41c-3.6-9.2-10.6-17.8-12.4-26.8l3.6-4.1h1.8c3.2,1.8,6.7,3,10.3,3.6
				c3.5,0.6,6.9,1.6,10.3,2.9c2.9,3.5,5.3,7.4,7.2,11.5c1.6,4,2.6,8.3,3.1,12.6c0.5,4.7,1.9,9.2,4.1,13.3c0,3.1,0.7,11.9,0.7,11.9
				l1.1,9c-0.5,3.1-0.5,6.7-1.1,10.3c-0.6,3.4-1.8,6.6-3.6,9.5c-1.8,1.8-3.6,2.5-6.1,1.8L583.7,112.4z"/>
			<path class="st0" d="M642.8,92.9l1.8-30.8L644,49.7c0.5-5.4,1.3-18.4,1.8-23.8c0.5-4.9,1.3-9.7,0.5-15.1c-1.8-2.3-3-4.9-3.6-7.7
				l6.1-6.1h1.8l1.8,0.7L663.3-3c3.4,0.9,6.3,2.8,8.5,5.6l1.1,3.6c-2.2,4.7-4.2,9.5-5.9,14.4c-1.7,5.2-2.4,10.7-2.3,16.2
				c0,0-0.7,4.5-1.3,9.9l0.5,8.8c-0.5,5.4-1.8,11.5-2.3,16.9c-0.7,5.7-1.7,11.3-3.1,16.9c-1.8,5.4-4.1,10.8-7.7,14.9l-4.3,0.5
				C643.5,101.9,642.2,97.6,642.8,92.9z M645.5,128.6c-0.5-3.8-1.1-7.4-1.4-11.5l0.7-0.9l4.1,1.3c3.6,1.6,6.5,3.1,10.1,4.7
				c3.3,1.5,6.1,4.1,7.7,7.4l-0.7,6.7c-3,2.9-6.5,5.1-10.4,6.5l-7.4-2C646.4,137,646,132.9,645.5,128.6L645.5,128.6z"/>
		</g>
	</g>
</g>
</svg>
